External Loads File
version=1
nRows=47
nColumns=13
Range=5.000000e-03-10 seconds
endheader
time 	forceRightX 	forceRightY 	forceRightZ 	pointRightX 	pointRightY 	pointRightZ 	forceLeftX 	forceLeftY 	forceLeftZ 	pointLeftX 	pointLeftY 	pointLeftZ 		
5.005000 11.348326 7.695940 -0.000000 0.145742 0.468496 -0.104686 109.075522 820.505044 -0.000000 0.244630 0.157501 -0.342805
5.010000 9.379614 8.451762 -0.000000 0.154776 0.473973 -0.105081 129.376924 820.951242 -0.000000 0.235824 0.152632 -0.342586
5.015000 6.149625 9.992239 -0.000000 0.164154 0.478696 -0.105479 148.084946 818.237741 -0.000000 0.226799 0.148572 -0.342721
5.020000 1.869436 12.698922 -0.000000 0.174079 0.482656 -0.105895 165.818769 812.081199 -0.000000 0.217590 0.145093 -0.342789
5.025000 -3.242101 16.870032 -0.000000 0.183734 0.485864 -0.105933 180.614671 802.716827 -0.000000 0.208175 0.142165 -0.342875
5.030000 -8.891697 22.628528 -0.000000 0.193696 0.488219 -0.106181 193.667629 789.834465 -0.000000 0.198649 0.139902 -0.342898
5.035000 -14.774665 29.911544 -0.000000 0.203820 0.489748 -0.106298 204.836674 773.517743 -0.000000 0.188947 0.138443 -0.343154
5.040000 -20.616512 38.424533 -0.000000 0.213919 0.490692 -0.106506 213.575366 754.118594 -0.000000 0.179268 0.137597 -0.343479
5.045000 -26.177574 47.677009 -0.000000 0.223910 0.490897 -0.106569 220.305095 731.793034 -0.000000 0.169479 0.137367 -0.343867
5.050000 -31.295026 57.049569 -0.000000 0.233795 0.490551 -0.106670 225.485192 706.604589 -0.000000 0.159583 0.137993 -0.344174
5.055000 -35.861813 65.922449 -0.000000 0.243815 0.489726 -0.107021 229.728235 678.421567 -0.000000 0.149656 0.139355 -0.344340
5.060000 -40.054999 73.684458 -0.000000 0.252961 0.488051 -0.107142 231.450953 647.704815 -0.000000 0.139808 0.141646 -0.344042
5.065000 -43.832756 80.106567 -0.000000 0.262007 0.485890 -0.107291 231.694233 613.870157 -0.000000 0.130153 0.144565 -0.344294
5.070000 -47.165533 85.227810 -0.000000 0.270565 0.482848 -0.107441 230.670166 576.420221 -0.000000 0.120703 0.149115 -0.344293
5.075000 -50.340573 89.107379 -0.000000 0.278886 0.479212 -0.107445 226.254731 535.759273 -0.000000 0.111752 0.152304 -0.344447
5.080000 -52.975370 92.260441 -0.000000 0.286857 0.474880 -0.107394 220.536356 490.676758 -0.000000 0.103150 0.157431 -0.344265
5.085000 -55.220843 94.922006 -0.000000 0.294231 0.469950 -0.107396 212.038877 441.658266 -0.000000 0.094998 0.163038 -0.344034
5.090000 -56.966237 97.508067 -0.000000 0.301029 0.464258 -0.107399 200.964921 388.885775 -0.000000 0.087376 0.169379 -0.343809
5.095000 -58.200763 100.447518 -0.000000 0.307434 0.458032 -0.107173 187.292164 333.163807 -0.000000 0.080288 0.176351 -0.343550
5.100000 -59.121289 104.120907 -0.000000 0.313230 0.451345 -0.107088 170.788574 276.030693 -0.000000 0.073933 0.183812 -0.343278
5.105000 -59.815561 109.018775 -0.000000 0.318391 0.443772 -0.106813 152.132212 219.077564 -0.000000 0.068260 0.191665 -0.342989
5.110000 -60.574560 115.527719 -0.000000 0.322974 0.435687 -0.106478 131.863698 164.360547 -0.000000 0.063269 0.199834 -0.342691
5.115000 -61.740744 123.991925 -0.000000 0.326973 0.426920 -0.106082 110.850101 113.853840 -0.000000 0.058823 0.207709 -0.342280
5.120000 -63.241606 134.911101 -0.000000 0.330419 0.417630 -0.105568 90.374617 68.873687 -0.000000 0.055049 0.216576 -0.342216
5.125000 -65.445932 148.472108 -0.000000 0.333251 0.407956 -0.105175 71.142120 30.702725 -0.000000 0.051657 0.225421 -0.341936
5.130000 -68.359181 164.919214 -0.000000 0.335524 0.398089 -0.105013 54.012286 -0.249425 -0.000000 0.048784 0.234579 -0.341765
5.135000 -71.849968 184.414046 -0.000000 0.337163 0.387827 -0.105149 39.579591 -24.100027 -0.000000 0.046399 0.243972 -0.341761
5.140000 -75.681381 207.000855 -0.000000 0.338276 0.377164 -0.105092 28.149216 -41.356785 -0.000000 0.044437 0.253549 -0.341684
5.145000 -79.692110 232.515530 -0.000000 0.338805 0.366207 -0.104975 19.803753 -52.787314 -0.000000 0.043037 0.263232 -0.341676
5.150000 -83.380806 260.740479 -0.000000 0.338782 0.355135 -0.104940 14.368976 -59.363366 -0.000000 0.042088 0.273234 -0.341557
5.155000 -86.139344 291.345639 -0.000000 0.338305 0.343719 -0.104955 11.527061 -62.123871 -0.000000 0.041722 0.283398 -0.341432
5.160000 -88.016082 323.726204 -0.000000 0.337352 0.332446 -0.104938 11.021966 -62.094287 -0.000000 0.041865 0.293572 -0.341368
5.165000 -87.972252 357.565436 -0.000000 0.335927 0.320999 -0.105141 12.287432 -60.286211 -0.000000 0.042611 0.303906 -0.341288
5.170000 -85.797762 392.293344 -0.000000 0.334214 0.309616 -0.104868 14.853890 -57.556291 -0.000000 0.044000 0.314284 -0.341323
5.175000 -81.210640 427.349120 -0.000000 0.331866 0.298471 -0.105361 18.184454 -54.560892 -0.000000 0.045993 0.324695 -0.341512
5.180000 -73.452712 462.232704 -0.000000 0.329206 0.287324 -0.105307 21.705126 -51.699929 -0.000000 0.048587 0.335104 -0.341457
5.185000 -62.444975 496.288003 -0.000000 0.326187 0.276288 -0.105310 25.022310 -49.065455 -0.000000 0.051793 0.345479 -0.341473
5.190000 -48.640640 528.798163 -0.000000 0.322614 0.265549 -0.105231 27.919946 -46.518810 -0.000000 0.055528 0.355677 -0.341486
5.195000 -31.842534 559.138819 -0.000000 0.318796 0.255105 -0.105423 30.278826 -43.870946 -0.000000 0.059833 0.365998 -0.341434
5.200000 -13.241614 586.673257 -0.000000 0.314447 0.244881 -0.105324 32.237957 -40.903942 -0.000000 0.064719 0.375789 -0.341333
5.205000 6.978324 610.998895 -0.000000 0.309723 0.234965 -0.105163 33.908857 -37.599358 -0.000000 0.070109 0.385393 -0.341272
5.210000 27.993391 631.834909 -0.000000 0.304583 0.225420 -0.104991 35.413061 -34.069253 -0.000000 0.076045 0.394640 -0.341215
5.215000 49.354566 649.048192 -0.000000 0.299137 0.216282 -0.104791 36.763433 -30.559475 -0.000000 0.082516 0.403636 -0.341168
5.220000 69.968656 662.708438 -0.000000 0.293312 0.207770 -0.104667 37.912941 -27.322624 -0.000000 0.089385 0.412237 -0.341232
5.225000 90.476534 672.840159 -0.000000 0.286942 0.199854 -0.104472 38.653703 -24.695095 -0.000000 0.096747 0.420633 -0.341320
5.230000 109.247435 679.799425 -0.000000 0.280528 0.192421 -0.104500 38.793125 -22.833748 -0.000000 0.104446 0.428531 -0.341399
5.235000 127.291937 683.640982 -0.000000 0.273817 0.185345 -0.104375 37.988762 -21.977958 -0.000000 0.112736 0.435797 -0.341566
